# xmcd
#
# Track frame offsets: 
#        150
#        25013
#        47415
#        68599
#        93339
#        115698
#        147436
#        172076
#        194650
#        214566
#        248506
#        273073
#        287108
#
# Disc length: 4256 seconds
#
# Revision: 1
# Processed by: cddbd v1.5.2PL0 Copyright (c) Steve Scherf et al.
# Submitted via: ExactAudioCopy v0.99pb5
#
DISCID=b2109e0d
DTITLE=Various Artist - Bar Susu 2 [CD1)
DYEAR=2006
DGENRE=House
TTITLE0=Mr. A.L.I. featuring Carla Prather - That Feeling
TTITLE1=James Ratcliff presents Urban Groove featuring Tommy Blaize - 
TTITLE1=Takin' U Back
TTITLE2=Notenshun featuring Sandy Mill - Lyrical Flight
TTITLE3=Jody Watley - Photographs (East West Connection Remix)
TTITLE4=Kim English - C'est La Vie (Jon Cutler Distant Music Remix)
TTITLE5=Notenshun - Unfinished Business (Remix)
TTITLE6=Kevin Saunderson presents The Reese Project featuring Paul Ran
TTITLE6=dolph - This Means That (Bobby and Steve and Urban Groove Full
TTITLE6=Vo
TTITLE7=The Anderson Soares Project - Sentido Litoral
TTITLE8=Awakening - Take Me Now (Bah Samba Remix)
TTITLE9=Nathan Haines - U See That  (Notenshun Rework)
TTITLE10=Notenshun - Amarante (Phil Asher restless soul Remix)
TTITLE11=280 West featuring Diamond Temple - I Never Knew
TTITLE12=Notenshun featuring Sandy Mill - Soul Music (Danism Remix)
EXTD=
EXTT0=
EXTT1=
EXTT2=
EXTT3=
EXTT4=
EXTT5=
EXTT6=
EXTT7=
EXTT8=
EXTT9=
EXTT10=
EXTT11=
EXTT12=
PLAYORDER=
